# xmcd CD database file
#
# Track frame offsets:
#	150
#	12967
#	21856
#	31969
#	42451
#	56167
#	66431
#	76682
#	86906
#	96046
#	108233
#	116612
#	128091
#	141998
#	153170
#	161342
#	174996
#	187753
#	202882
#	212301
#	224304
#	235589
#	247641
#	259886
#
# Disc length: 3589 seconds
#
# Revision: 0
# Processed by: cddbd v1.5.1PL0 Copyright (c) Steve Scherf et al.
# Submitted via: CDex 1.50
#
DISCID=330e0318
DTITLE=willie nelson - home is where you're happy
DYEAR=2000
DGENRE=Country
TTITLE0=home is where you're happy
TTITLE1=one step beyond
TTITLE2=broken promise
TTITLE3=no tomorrow in sight
TTITLE4=i'm gonna lose a lot of teardrops
TTITLE5=i can't find the time
TTITLE6=things to remember
TTITLE7=i just don't understand
TTITLE8=slow down old world
TTITLE9=i feel sorry for him
TTITLE10=any old arms won't do
TTITLE11=happiness lives next door
TTITLE12=december day
TTITLE13=waiting time
TTITLE14=why are you picking on me
TTITLE15=and so will you my love
TTITLE16=pride wins again
TTITLE17=right from wrong
TTITLE18=suffer in silence
TTITLE19=healing hands of time
TTITLE20=go away
TTITLE21=you'll always have someone
TTITLE22=i'll stay around
TTITLE23=new way to cry
EXTD=YEAR: 2000
EXTT0=
EXTT1=
EXTT2=
EXTT3=
EXTT4=
EXTT5=
EXTT6=
EXTT7=
EXTT8=
EXTT9=
EXTT10=
EXTT11=
EXTT12=
EXTT13=
EXTT14=
EXTT15=
EXTT16=
EXTT17=
EXTT18=
EXTT19=
EXTT20=
EXTT21=
EXTT22=
EXTT23=
PLAYORDER=
